<svg xmlns="http://www.w3.org/2000/svg" viewBox="0 0 2500 2500">
	<path d="M842.1 620.3c59.9 0 114.6 5.3 164.1 15.9 49.5 10.6 91.7 27.9 126.9 52s62.6 56.1 82 96.2 29.1 89.4 29.1 148.2c0 63.5-14.5 116.4-43.2 158.7s-71.5 77-127.8 104c77.6 22.3 135.5 61.5 173.7 117.3 38.2 55.8 57.4 123.2 57.4 202 0 63.5-12.3 118.5-37 165s-57.9 84.4-99.7 113.7c-41.8 29.5-89.4 51.1-142.8 65.3-53.8 14.1-109.3 21.2-164.9 21.1H249.5V620.3h592.6zM806.9 1130c49.4 0 89.9-11.8 121.7-35.2 31.8-23.6 47.7-61.7 47.6-114.6 0-29.3-5.3-53.5-15.9-72.3s-24.7-33.6-42.4-44.1c-17.7-10.6-37.9-17.9-60.8-22-23.6-4.1-47.5-6.2-71.5-6.1H526.5v294.6l280.4-.3zm15.9 534.4c26.1.1 52.1-2.6 77.6-7.9 24.7-5.3 46.5-14.1 65.3-26.5 18.8-12.3 33.8-29.1 45-50.2 11.1-21.1 16.8-48.2 16.8-81.1 0-64.6-18.2-110.8-54.7-138.4-36.5-27.7-84.7-41.5-144.6-41.5H526.5v345.7l296.3-.1zm829.9-26.5c37.6 36.5 91.7 54.7 162.3 54.7 50.6 0 94-12.7 130.5-37.9s58.8-52 67-80.3H2233c-35.2 109.4-89.4 187.5-162.3 234.6-72.9 47-161.1 70.6-264.6 70.6-71.7 0-136.4-11.4-194-34.3-57.6-22.9-106.4-55.6-146.4-97.9s-70.9-92.8-92.6-151.6c-21.7-58.8-32.6-123.5-32.6-194 0-68.1 11.1-131.6 33.5-190.4 22.3-58.8 54.1-109.6 95.3-152.5 41.1-42.9 90.3-76.7 147.3-101.4s120.3-37 189.6-37c77.6 0 145.2 15 202.9 45 57.6 30 104.9 70.3 142 120.8 37 50.6 63.8 108.2 80.3 172.9s22.3 132.3 17.7 202.9h-657.9c3.4 80.6 23.9 139.4 61.5 175.8zm283.1-479.7c-30-32.9-75.6-49.4-136.7-49.4-40 0-73.3 6.8-99.6 20.2-26.5 13.6-47.6 30.2-63.5 50.2s-27 41.1-33.5 63.5-10.3 42.4-11.4 59.9h407.4c-11.9-63.2-32.8-111.5-62.7-144.4zm-387.6-474h509v141.2h-509V684.2z" fill="#fff" />
</svg>