<svg xmlns="http://www.w3.org/2000/svg" viewBox="0 0 800 800">
	<path d="M798.1 311.2l-.2-2.1v-.2l-.9-7.7c-.2-1.5-.4-3.3-.6-5.3l-.2-1.6h-.4c-9.8-55.5-36.6-108.2-78.1-153.1-41.3-44.8-95-80.1-155.3-102.2C510.8 20.1 456 10.5 399.6 10.5c-76.1 0-150.1 17.9-213.8 51.8C62.8 127.6-9.7 247.7 1 368.2c5.5 62.4 30 121.7 70.6 171.6 38.3 47 90.1 84.9 149.7 109.7 36.7 15.2 73 22.4 111.4 30l4.5.9c10.6 2.1 13.4 5 14.2 6.1 1.4 2.1.6 6.3.1 8.6l-1.5 6.3c-4.1 16.8-8.4 34.2-5 53.4 3.9 22 17.6 34.7 37.8 34.7 21.7 0 46.3-14.5 62.7-24.2l2.2-1.3c38.9-22.9 75.6-48.7 103.3-68.6 60.4-43.6 128.9-93 180.3-156.9 51.6-64.4 75.9-147.1 66.8-227.3zm-549 122h-69c-10.4 0-18.9-8.5-18.9-18.9V269.4c0-10.4 8.5-18.9 18.9-18.9S199 259 199 269.4v126h50.1c10.4 0 18.9 8.5 18.9 18.9 0 10.4-8.4 18.9-18.9 18.9zm72-19.4c0 10.4-8.5 18.9-18.9 18.9s-18.9-8.5-18.9-18.9V268.9c0-10.4 8.5-18.9 18.9-18.9s18.9 8.5 18.9 18.9v144.9zm170.7 0c0 8.2-5.3 15.4-13.1 18-1.9.6-3.9.9-5.8.9-5.9 0-11.7-2.8-15.3-7.8l-68-93.7v82.6c0 10.4-8.5 18.9-18.9 18.9s-18.9-8.5-18.9-18.9V273.1c0-8.2 5.3-15.4 13.1-18 7.8-2.5 16.3.2 21.1 6.9l68 93.7V269c0-10.4 8.5-18.9 18.9-18.9s18.9 8.5 18.9 18.9v144.8zm137.6 15.9H536c-10.4 0-18.9-8.5-18.9-18.9V266c0-10.4 8.5-18.9 18.9-18.9h90.6c10.4 0 18.9 8.5 18.9 18.9s-8.5 18.9-18.9 18.9h-71.7v34.7H613c10.4 0 18.9 8.5 18.9 18.9s-8.5 18.9-18.9 18.9h-58.2v34.7h74.6c10.4 0 18.9 8.5 18.9 18.9 0 10.2-8.4 18.7-18.9 18.7z" fill="#fff" />
</svg>