<svg xmlns="http://www.w3.org/2000/svg" viewBox="0 0 512 512">
	<path d="M441.6 68.5H70.3C54 68.5 38.2 75 26.5 86.6 14.9 98.2 8.4 113.9 8.4 130.4v206.2c0 16.4 6.5 32.1 18.1 43.8 11.6 11.7 27.3 18.1 43.8 18.1h165v41.3h-20.6c-7.3 0-14.2 3.9-17.9 10.3-3.7 6.4-3.7 14.3 0 20.6 3.7 6.4 10.4 10.3 17.9 10.3h82.5c7.3 0 14.2-3.9 17.9-10.3 3.7-6.4 3.7-14.3 0-20.6-3.7-6.4-10.4-10.3-17.9-10.3h-20.6v-41.3h165c16.4 0 32.1-6.5 43.8-18.1 11.7-11.6 18.1-27.3 18.1-43.8V130.4c0-16.4-6.5-32.1-18.1-43.8C473.7 75 458 68.5 441.6 68.5zm20.7 268.1c0 5.4-2.2 10.7-6 14.6-3.8 3.8-9.1 6-14.6 6H70.3c-5.4 0-10.7-2.2-14.6-6-3.8-3.8-6-9.1-6-14.6V130.4c0-5.4 2.2-10.7 6-14.6 3.8-3.8 9.1-6 14.6-6h371.2c5.4 0 10.7 2.2 14.6 6 3.8 3.8 6 9.1 6 14.6v206.2h.2z" fill="#fff" />
</svg>