<svg data-name="Layer 2" xmlns="http://www.w3.org/2000/svg" viewBox="0 0 299.9 449.9">
  <g fill="#fff" data-name="Layer 1">
    <path d="M0 56.2C0 25.1 25.2 0 56.2 0h187.5c31.1 0 56.2 25.2 56.2 56.2v337.5c0 31.1-25.2 56.2-56.2 56.2H56.2C25.1 449.9 0 424.7 0 393.7V56.2zm56.2-18.8c-10.4 0-18.8 8.4-18.8 18.8v337.5c0 10.4 8.4 18.8 18.8 18.8h187.5c10.4 0 18.8-8.4 18.8-18.8V56.2c0-10.4-8.4-18.8-18.8-18.8H56.2z" fill-rule="evenodd" />
    <path d="M93.7 93.7c0-10.4 8.4-18.8 18.7-18.8h75c10.4 0 18.8 8.4 18.8 18.8s-8.4 18.8-18.8 18.8h-75c-10.3-.1-18.7-8.5-18.7-18.8z" />
  </g>
</svg>