<svg fill="#fff" height="800" width="800" xmlns="http://www.w3.org/2000/svg" viewBox="0 0 208.365 208.365">
	<path d="M13.79 32.384a12.472 12.472 0 00-1.731-.123C5.409 32.261 0 37.687 0 44.356v114.177c0 5.985 4.468 11.132 10.394 11.973l52.395 7.432V39.334l-48.999-6.95zm39.506 126.621a5.002 5.002 0 01-5.639 4.266l-34.071-4.723a5 5 0 011.373-9.907l34.071 4.723a5.002 5.002 0 014.266 5.641zM9.319 128.376a4.991 4.991 0 015.635-4.272l26.844 3.69a5 5 0 11-1.363 9.906l-26.844-3.69a5 5 0 01-4.272-5.634zm43.977-19.48a5.002 5.002 0 01-5.639 4.266l-34.071-4.723a5 5 0 011.373-9.907l34.071 4.723a5.001 5.001 0 014.266 5.641zm0-25.055a5.002 5.002 0 01-5.639 4.265l-34.071-4.724a4.999 4.999 0 01-4.266-5.639c.379-2.735 2.905-4.659 5.639-4.266l34.071 4.724a5 5 0 014.266 5.64zm0-25.055a5.002 5.002 0 01-5.639 4.265l-34.071-4.724a4.999 4.999 0 01-4.266-5.639c.379-2.735 2.905-4.656 5.639-4.266l34.071 4.724a5 5 0 014.266 5.64zm144.675-20.927l-52.394-7.432v138.604l48.999 6.95c.576.081 1.158.123 1.731.123 6.649 0 12.058-5.426 12.058-12.095V49.832c0-5.984-4.469-11.132-10.394-11.973zm.988 118.268a5.002 5.002 0 01-5.639 4.266l-34.071-4.723a5 5 0 011.373-9.907l34.071 4.723a5.002 5.002 0 014.266 5.641zm-43.976-30.38a5 5 0 015.639-4.267l20.949 2.903a5.001 5.001 0 01-1.373 9.906l-20.949-2.903a5 5 0 01-4.266-5.639zm43.976-18.188a5.002 5.002 0 01-5.639 4.265l-34.071-4.724a4.999 4.999 0 01-4.266-5.639c.379-2.735 2.909-4.653 5.639-4.266l34.071 4.724a5 5 0 014.266 5.64zm-43.976-30.381c.379-2.735 2.909-4.654 5.639-4.266l10.474 1.452a4.999 4.999 0 014.266 5.639 5.002 5.002 0 01-5.639 4.265l-10.474-1.452a4.999 4.999 0 01-4.266-5.638zm43.976-18.188a5.002 5.002 0 01-5.639 4.265l-34.071-4.724a4.999 4.999 0 01-4.266-5.639c.379-2.735 2.909-4.654 5.639-4.266l34.071 4.724a5 5 0 014.266 5.64zM72.788 39.334v138.604l62.789-8.906V30.428l-62.789 8.906zM84.02 55.159a5 5 0 014.316-4.953l31.94-4.411a4.998 4.998 0 015.684 4.954v51.013a5 5 0 01-4.316 4.953l-31.94 4.411a5.001 5.001 0 01-5.684-4.953V55.159zm39.757 100.512l-34.071 4.723a5 5 0 01-1.373-9.906l34.071-4.723a5 5 0 011.373 9.906zm0-22.747l-34.071 4.724a5 5 0 01-1.373-9.904l34.071-4.724c2.735-.393 5.26 1.529 5.639 4.266a4.998 4.998 0 01-4.266 5.638z" />
</svg>