<svg id="prefix__Layer_2" data-name="Layer 2" xmlns="http://www.w3.org/2000/svg" viewBox="0 0 325.67 367.82">
  <defs>
    <style>
      .prefix__cls-1 {
        fill: #fff
      }
    </style>
  </defs>
  <g id="prefix__Logo">
    <path id="prefix__path6" class="prefix__cls-1" d="M325.67 257.47V85.82L177.01 0v65.9l58.24 33.72c2.3 1.53 2.3 4.6 0 5.36l-68.97 39.85c-2.3 1.53-4.6.77-6.13 0l-68.97-39.85c-2.3-.77-2.3-4.6 0-5.36l58.24-33.72V0L0 85.82v171.65l56.7-32.95v-67.43c0-2.3 3.07-3.83 4.6-3.07l68.97 39.85c2.3 1.53 3.07 3.07 3.07 5.36v79.69c0 2.3-3.07 3.83-4.6 3.07L70.5 248.27l-56.7 32.95 148.66 86.59 148.66-85.82-56.7-32.95-58.24 33.72c-2.3 1.53-4.6 0-4.6-3.07V200c0-2.3 1.53-4.6 3.07-5.36l68.97-39.85c2.3-1.53 4.6 0 4.6 3.07v67.43l57.47 32.18z" />
    <path id="prefix__path8" class="prefix__cls-1" d="M162.45 367.82L311.11 282l-56.7-32.95-58.24 33.72c-2.3 1.53-4.6 0-4.6-3.07v-79.69c0-2.3 1.53-4.6 3.07-5.36l68.97-39.85c2.3-1.53 4.6 0 4.6 3.07v67.43l56.7 32.95V85.82l-162.45 94.25v187.74z" />
    <path id="prefix__path10" class="prefix__cls-1" d="M177.01 0v65.9l58.24 33.72c2.3 1.53 2.3 4.6 0 5.36l-68.97 39.85c-2.3 1.53-4.6.77-6.13 0l-68.97-39.85c-2.3-.77-2.3-4.6 0-5.36l58.24-33.72V0L0 85.82l162.45 94.25L324.9 85.82 177.01 0z" />
    <path id="prefix__path12" class="prefix__cls-1" d="M129.5 282.76l-58.24-33.72-56.7 32.95 148.66 85.82V180.08L0 85.82v171.65l56.7-32.95v-67.43c0-2.3 3.07-3.83 4.6-3.07l68.97 39.85c2.3 1.53 3.07 3.07 3.07 5.36v79.69c.77 3.07-1.53 5.36-3.83 3.83z" />
  </g>
</svg>